<svg xmlns="http://www.w3.org/2000/svg" width="1200" height="760" viewBox="0 0 1200 760">
<defs><linearGradient id="g" x1="0" y1="0" x2="1" y2="1"><stop stop-color="#db2777"/><stop offset="1" stop-color="#1e40af"/></linearGradient><filter id="s"><feDropShadow dx="0" dy="18" stdDeviation="24" flood-color="#1e40af" flood-opacity=".16"/></filter></defs>
<rect width="1200" height="760" rx="46" fill="#f5f7fb"/><circle cx="1030" cy="90" r="200" fill="#db2777" opacity=".08"/><circle cx="170" cy="700" r="230" fill="#db2777" opacity=".06"/>
<rect x="58" y="58" width="1084" height="644" rx="38" fill="#fff" filter="url(#s)"/><rect x="58" y="58" width="1084" height="150" rx="38" fill="url(#g)"/><rect x="58" y="164" width="1084" height="44" fill="url(#g)"/>
<text x="90" y="145" font-size="54" font-weight="800" fill="#fff">二维码海报制作</text><text x="90" y="250" font-size="30" font-weight="700" fill="#db2777">网页分享 / 活动宣传</text><circle cx="100" cy="279" r="6" fill="#db2777"/><text x="118" y="285" font-size="26" fill="#334155">链接转二维码</text><circle cx="100" cy="324" r="6" fill="#db2777"/><text x="118" y="330" font-size="26" fill="#334155">简单海报排版</text><circle cx="100" cy="369" r="6" fill="#db2777"/><text x="118" y="375" font-size="26" fill="#334155">可发群或朋友圈</text><circle cx="100" cy="414" r="6" fill="#db2777"/><text x="118" y="420" font-size="26" fill="#334155">扫码直达页面</text>
<rect x="760" y="275" width="290" height="230" rx="28" fill="#eff6ff" stroke="#db2777" stroke-width="4"/><rect x="800" y="320" width="210" height="22" rx="11" fill="#db2777" opacity=".28"/><rect x="800" y="365" width="170" height="22" rx="11" fill="#db2777" opacity=".20"/><rect x="800" y="410" width="230" height="22" rx="11" fill="#db2777" opacity=".16"/><rect x="800" y="455" width="150" height="22" rx="11" fill="#db2777" opacity=".12"/>
<text x="790" y="565" font-size="24" fill="#64748b">示例展示图</text><text x="90" y="650" font-size="24" fill="#64748b">小蔡同学文档工作室 · 示例仅供展示</text></svg>