<svg xmlns="http://www.w3.org/2000/svg" width="1200" height="760" viewBox="0 0 1200 760">
<defs><linearGradient id="g" x1="0" y1="0" x2="1" y2="1"><stop stop-color="#2563eb"/><stop offset="1" stop-color="#1e40af"/></linearGradient><filter id="s"><feDropShadow dx="0" dy="18" stdDeviation="24" flood-color="#1e40af" flood-opacity=".16"/></filter></defs>
<rect width="1200" height="760" rx="46" fill="#f5f7fb"/><circle cx="1030" cy="90" r="200" fill="#2563eb" opacity=".08"/><circle cx="170" cy="700" r="230" fill="#2563eb" opacity=".06"/>
<rect x="58" y="58" width="1084" height="644" rx="38" fill="#fff" filter="url(#s)"/><rect x="58" y="58" width="1084" height="150" rx="38" fill="url(#g)"/><rect x="58" y="164" width="1084" height="44" fill="url(#g)"/>
<text x="90" y="145" font-size="54" font-weight="800" fill="#fff">个人主页 / 简历主页</text><text x="90" y="250" font-size="30" font-weight="700" fill="#2563eb">实习申请 / 作品展示</text><circle cx="100" cy="279" r="6" fill="#2563eb"/><text x="118" y="285" font-size="26" fill="#334155">个人介绍</text><circle cx="100" cy="324" r="6" fill="#2563eb"/><text x="118" y="330" font-size="26" fill="#334155">经历展示</text><circle cx="100" cy="369" r="6" fill="#2563eb"/><text x="118" y="375" font-size="26" fill="#334155">技能模块</text><circle cx="100" cy="414" r="6" fill="#2563eb"/><text x="118" y="420" font-size="26" fill="#334155">联系方式</text>
<rect x="760" y="275" width="290" height="230" rx="28" fill="#eff6ff" stroke="#2563eb" stroke-width="4"/><rect x="800" y="320" width="210" height="22" rx="11" fill="#2563eb" opacity=".28"/><rect x="800" y="365" width="170" height="22" rx="11" fill="#2563eb" opacity=".20"/><rect x="800" y="410" width="230" height="22" rx="11" fill="#2563eb" opacity=".16"/><rect x="800" y="455" width="150" height="22" rx="11" fill="#2563eb" opacity=".12"/>
<text x="790" y="565" font-size="24" fill="#64748b">示例展示图</text><text x="90" y="650" font-size="24" fill="#64748b">小蔡同学文档工作室 · 示例仅供展示</text></svg>